<svg width="35" height="35" viewBox="0 0 35 35" fill="none" xmlns="http://www.w3.org/2000/svg">
<rect width="35" height="35" rx="17.5" fill="#1C75BC"/>
<path d="M23.3333 16.3333H18.6667V11.6667C18.6667 11.3572 18.5437 11.0605 18.325 10.8417C18.1062 10.6229 17.8094 10.5 17.5 10.5C17.1906 10.5 16.8938 10.6229 16.675 10.8417C16.4562 11.0605 16.3333 11.3572 16.3333 11.6667V16.3333H11.6667C11.3572 16.3333 11.0605 16.4562 10.8417 16.675C10.6229 16.8938 10.5 17.1906 10.5 17.5C10.5 17.8094 10.6229 18.1062 10.8417 18.325C11.0605 18.5437 11.3572 18.6667 11.6667 18.6667H16.3333V23.3333C16.3333 23.6428 16.4562 23.9395 16.675 24.1583C16.8938 24.3771 17.1906 24.5 17.5 24.5C17.8094 24.5 18.1062 24.3771 18.325 24.1583C18.5437 23.9395 18.6667 23.6428 18.6667 23.3333V18.6667H23.3333C23.6428 18.6667 23.9395 18.5437 24.1583 18.325C24.3771 18.1062 24.5 17.8094 24.5 17.5C24.5 17.1906 24.3771 16.8938 24.1583 16.675C23.9395 16.4562 23.6428 16.3333 23.3333 16.3333Z" fill="white"/>
</svg>
