<svg width="35" height="35" viewBox="0 0 35 35" fill="none" xmlns="http://www.w3.org/2000/svg">
<rect width="35" height="35" rx="17.5" fill="#1C75BC"/>
<path d="M24.204 9.55459L19.7021 8.17213C18.7084 7.86948 17.6356 7.96863 16.7142 8.4483C15.7928 8.92797 15.0963 9.74989 14.7742 10.7375L14.6254 11.1643H11.9588C10.9092 11.1655 9.90302 11.583 9.16088 12.3252C8.41874 13.0674 8.00126 14.0736 8 15.1232V23.0411C8.00126 24.0907 8.41874 25.0969 9.16088 25.8391C9.90302 26.5812 10.9092 26.9987 11.9588 27H16.7093C17.309 26.9979 17.9004 26.8589 18.4383 26.5935C18.9762 26.3281 19.4463 25.9434 19.8129 25.4687C19.9936 25.4949 20.1759 25.5087 20.3585 25.5099C21.2086 25.5105 22.0362 25.2361 22.7176 24.7277C23.399 24.2192 23.8977 23.5039 24.1391 22.6887L26.8437 14.4549C27.1326 13.4552 27.018 12.3819 26.5245 11.4657C26.0309 10.5495 25.1978 9.86334 24.204 9.55459ZM16.7093 25.4164H11.9588C11.3288 25.4164 10.7246 25.1662 10.2792 24.7207C9.83375 24.2752 9.5835 23.6711 9.5835 23.0411V15.1232C9.5835 14.4932 9.83375 13.889 10.2792 13.4436C10.7246 12.9981 11.3288 12.7479 11.9588 12.7479H16.7093C17.3392 12.7479 17.9434 12.9981 18.3888 13.4436C18.8343 13.889 19.0845 14.4932 19.0845 15.1232V23.0411C19.0845 23.6711 18.8343 24.2752 18.3888 24.7207C17.9434 25.1662 17.3392 25.4164 16.7093 25.4164ZM25.3291 13.9854L22.6276 22.22C22.4934 22.6755 22.2253 23.0802 21.8582 23.3815C21.4912 23.6828 21.042 23.8668 20.5691 23.9097C20.6341 23.6247 20.6673 23.3334 20.668 23.0411V15.1232C20.6668 14.0736 20.2493 13.0674 19.5071 12.3252C18.765 11.583 17.7588 11.1655 16.7093 11.1643H16.3079C16.5122 10.5883 16.9307 10.1133 17.4763 9.83798C18.0219 9.56266 18.6526 9.50823 19.2373 9.68602L23.7392 11.0685C24.3322 11.2515 24.8302 11.6588 25.1272 12.2037C25.4242 12.7486 25.4966 13.3879 25.3291 13.9854Z" fill="white"/>
<path d="M17.2167 18.3167H14.9833V16.0833C14.9833 15.9021 14.9113 15.7283 14.7832 15.6001C14.655 15.472 14.4812 15.4 14.3 15.4C14.1188 15.4 13.9449 15.472 13.8168 15.6001C13.6886 15.7283 13.6167 15.9021 13.6167 16.0833V18.3167H11.3833C11.2021 18.3167 11.0283 18.3887 10.9001 18.5168C10.772 18.645 10.7 18.8188 10.7 19C10.7 19.1812 10.772 19.355 10.9001 19.4832C11.0283 19.6113 11.2021 19.6833 11.3833 19.6833H13.6167V21.9167C13.6167 22.0979 13.6886 22.2717 13.8168 22.3999C13.9449 22.528 14.1188 22.6 14.3 22.6C14.4812 22.6 14.655 22.528 14.7832 22.3999C14.9113 22.2717 14.9833 22.0979 14.9833 21.9167V19.6833H17.2167C17.3979 19.6833 17.5717 19.6113 17.6998 19.4832C17.828 19.355 17.9 19.1812 17.9 19C17.9 18.8188 17.828 18.645 17.6998 18.5168C17.5717 18.3887 17.3979 18.3167 17.2167 18.3167Z" fill="white" stroke="white" stroke-width="0.2"/>
</svg>
