<svg width="32" height="41" viewBox="0 0 32 41" fill="none" xmlns="http://www.w3.org/2000/svg">
<path d="M7.36403 24.6112C7.69787 25.1685 7.52075 25.8922 6.96805 26.2288C6.41536 26.5672 5.69667 26.3887 5.36097 25.8295C5.0262 25.2732 5.20425 24.5467 5.75694 24.2101C6.30964 23.8726 7.02926 24.0521 7.36403 24.6103V24.6112Z" fill="#3B9142"/>
<path d="M8.0243 17.7305C8.35907 18.2878 8.18102 19.0133 7.62832 19.3499C7.07562 19.6875 6.35601 19.5079 6.02216 18.9507C5.68832 18.3944 5.86451 17.6688 6.41814 17.3313C6.97083 16.9937 7.69045 17.1723 8.0243 17.7305Z" fill="#3B9142"/>
<path d="M5.31831 24.6168C3.9477 22.3307 4.67473 19.3584 6.94116 17.9774L7.42431 18.7833C5.603 19.8988 5.01785 22.2877 6.11954 24.1288L5.31924 24.6159L5.31831 24.6168Z" fill="#3B9142"/>
<path d="M11.0168 22.3775C10.7303 22.9329 10.0505 23.1498 9.49971 22.86C8.94794 22.5711 8.73372 21.8857 9.02027 21.3294C9.30774 20.7749 9.98749 20.558 10.5383 20.8488C11.0892 21.1368 11.3043 21.823 11.0168 22.3775Z" fill="#F15A29"/>
<path d="M16.9528 19.479C16.6653 20.0353 15.9855 20.2503 15.4347 19.9614C14.8829 19.6725 14.6687 18.9871 14.9553 18.4308C15.2427 17.8764 15.9225 17.6585 16.4733 17.9484C17.0242 18.2382 17.2393 18.9236 16.9528 19.479Z" fill="#F15A29"/>
<path d="M12.75 18.3597C13.8629 18.0231 15.1064 18.1073 16.2165 18.6907L15.7862 19.5276C14.8978 19.0619 13.9102 18.9974 13.019 19.2648C12.0953 19.5453 11.2821 20.1811 10.8008 21.1133L9.97173 20.6767C10.5726 19.5154 11.5927 18.7104 12.7463 18.3616C12.7463 18.3616 12.7482 18.3597 12.75 18.3597Z" fill="#F15A29"/>
<path d="M14.626 22.9189C14.7865 22.3139 15.4022 21.9539 16.0041 22.1138C16.6041 22.2746 16.9611 22.8973 16.8016 23.5023C16.6412 24.1091 16.0254 24.4672 15.4254 24.3064C14.8245 24.1456 14.4675 23.5247 14.627 22.9189H14.626Z" fill="#FBB040"/>
<path d="M9.45889 27.0506C9.61932 26.4457 10.2351 26.0857 10.8369 26.2456C11.4369 26.4064 11.7949 27.0273 11.6344 27.6331C11.474 28.2381 10.8583 28.5981 10.2573 28.4391C9.65734 28.2764 9.29846 27.6546 9.45889 27.0497V27.0506Z" fill="#FBB040"/>
<path d="M16.0143 24.3484C15.5988 25.9221 14.4304 27.0974 13.0051 27.577C12.1769 27.8566 11.2552 27.9052 10.3473 27.6593L10.5884 26.7477C11.3173 26.945 12.0462 26.9057 12.7083 26.6822C13.848 26.2989 14.7772 25.3639 15.1092 24.1053L16.0143 24.3484Z" fill="#FBB040"/>
<path d="M10.8286 16.6702C10.3723 17.0797 9.67404 17.0367 9.26972 16.5758C8.86447 16.1157 8.9062 15.4117 9.36245 15.004C9.81871 14.5954 10.517 14.6375 10.9222 15.0985C11.3275 15.5585 11.2848 16.2625 10.8286 16.6702Z" fill="#1C75BC"/>
<path d="M17.2783 16.113C16.8211 16.5206 16.1237 16.4786 15.7185 16.0195C15.3141 15.5595 15.3549 14.8554 15.8112 14.4459C16.2684 14.0382 16.9667 14.0812 17.3719 14.5403C17.7753 15.0003 17.7336 15.7044 17.2783 16.113Z" fill="#1C75BC"/>
<path d="M11.6076 15.0452C11.4212 15.1574 11.244 15.2902 11.0762 15.4407L10.4549 14.7357C10.6654 14.5459 10.8898 14.3804 11.1235 14.2383C12.9698 13.1135 15.4022 13.4388 16.886 15.1247L16.1858 15.7492C15.009 14.4103 13.0728 14.1523 11.6085 15.0452H11.6076Z" fill="#1C75BC"/>
<path d="M23.0222 7.96341C23.0222 7.96341 22.0735 2.41322 28.5269 2.79657C28.5269 2.79657 28.7161 8.72918 23.0222 7.96341Z" fill="#3B9142"/>
<path d="M18.2223 30.9805L18.2139 30.9721C18.2139 30.9721 18.2047 30.9795 18.2037 30.9805H18.2223ZM21.6618 22.5056C21.6618 22.4214 21.6618 22.3429 21.6609 22.2718C21.6293 20.5598 21.6191 17.8904 21.6201 15.0985C21.6201 9.51275 21.6609 9.52958 21.6609 9.51836V9.47722C21.6535 9.08452 21.6201 6.89099 20.3032 4.62921C19.0022 2.35621 16.2526 0.140251 11.4666 0.0289852L10.5161 0L10.3547 0.946226C10.3464 0.992976 10.249 1.57735 10.249 2.46187C10.2527 3.74002 10.4456 5.67081 11.5222 7.48659C12.5711 9.27713 14.5695 10.8479 17.6956 11.3108V9.07423C15.3243 8.62543 14.1392 7.55485 13.3983 6.34682C12.6211 5.05651 12.4366 3.50534 12.4403 2.46094C12.4403 2.40951 12.4403 2.35902 12.4403 2.3104C15.8872 2.6816 17.4804 4.21033 18.4161 5.75122C19.4241 7.45387 19.4742 9.29863 19.4686 9.47535V9.50807C19.4686 9.50153 19.4269 9.49779 19.4269 15.0966C19.4269 17.896 19.4371 20.5683 19.4686 22.2999C19.4696 22.3681 19.4705 22.4401 19.4705 22.5028C19.4696 24.7833 18.7889 26.5055 18.1129 27.6734C17.7744 28.2531 17.4378 28.6925 17.192 28.9777C17.0696 29.1208 16.9704 29.2264 16.9055 29.2919C16.8405 29.3573 16.8248 29.3676 16.8248 29.3695L18.2121 30.9702C18.3957 30.8131 21.5941 28.2652 21.66 22.5037L21.6618 22.5056Z" fill="black"/>
<path d="M20.7308 27.3218L18.6767 26.5504C17.5231 29.6593 14.6316 31.1244 11.4341 31.1459C8.01874 31.1478 4.53842 29.3666 3.18079 26.2839C2.50012 24.7589 2.19224 23.2536 2.19224 21.8137C2.1978 17.0077 5.65772 12.7937 11.0307 11.6511V9.38556C8.23944 9.89233 5.81259 11.1247 3.95234 12.8535C1.47262 15.1564 0 18.3523 0 21.8146C0 23.5733 0.382065 25.3975 1.18422 27.1927C3.02128 31.26 7.31859 33.3516 11.4341 33.3544C15.2724 33.3741 19.2034 31.4573 20.7308 27.3218ZM31.7967 28.2914C30.5152 25.6341 28.385 22.7449 28.7968 21.4303L28.7922 21.3807C28.781 21.2779 28.5816 18.4121 27.0135 15.81C25.8608 13.8792 23.8986 11.81 20.792 10.4889V12.9255C22.9415 14.0325 24.2714 15.536 25.1421 16.9591C25.7968 18.04 26.1668 19.6332 26.3718 20.3906C26.4738 20.7683 26.535 21.0778 26.5684 21.2835C26.5906 21.4144 26.6008 21.4929 26.6045 21.535L26.3662 22.1577C26.2753 22.5654 26.2522 23.147 26.5369 23.7977C27.2889 25.0909 28.679 27.4789 28.8413 27.7696C29.1501 28.3241 30.5819 30.037 26.2753 30.8963L26.7195 31.2292C26.5461 31.1114 26.3931 31.0066 26.2753 30.9272V37.7312C25.3211 38.1192 23.2856 38.7924 20.7512 38.7906C17.817 38.7793 14.2292 38.7363 10.6348 35.6966L9.10187 37.2861C13.0996 40.7213 17.3163 41 20.69 41H20.7521C24.9047 40.9953 27.786 39.4712 27.8796 39.4264L28.4667 39.115V32.5419C28.4667 32.5419 28.5 32.5307 28.5473 32.5157C28.5455 32.5148 28.5436 32.512 28.5427 32.512C29.1232 32.2717 32.9086 30.599 31.7967 28.2923V28.2914Z" fill="black"/>
</svg>
