<svg width="24" height="24" viewBox="0 0 24 24" fill="none" xmlns="http://www.w3.org/2000/svg">
<path d="M12 9C12 8.73478 12.1149 8.48043 12.3195 8.29289C12.5241 8.10536 12.8016 8 13.0909 8C13.3802 8 13.6577 8.10536 13.8623 8.29289C14.0669 8.48043 14.1818 8.73478 14.1818 9C14.1818 9.26522 14.0669 9.51957 13.8623 9.70711C13.6577 9.89464 13.3802 10 13.0909 10C12.8016 10 12.5241 9.89464 12.3195 9.70711C12.1149 9.51957 12 9.26522 12 9ZM24 5V19C23.9983 20.3256 23.423 21.5964 22.4005 22.5338C21.3779 23.4711 19.9916 23.9984 18.5455 24H7.63636C6.57626 23.9987 5.53953 23.7143 4.65296 23.1815C3.76639 22.6487 3.06841 21.8906 2.64436 21H1.09091C0.801582 21 0.524105 20.8946 0.31952 20.7071C0.114935 20.5196 0 20.2652 0 20C0 19.7348 0.114935 19.4804 0.31952 19.2929C0.524105 19.1054 0.801582 19 1.09091 19H2.18182V17H1.09091C0.801582 17 0.524105 16.8946 0.31952 16.7071C0.114935 16.5196 0 16.2652 0 16C0 15.7348 0.114935 15.4804 0.31952 15.2929C0.524105 15.1054 0.801582 15 1.09091 15H2.18182V13H1.09091C0.801582 13 0.524105 12.8946 0.31952 12.7071C0.114935 12.5196 0 12.2652 0 12C0 11.7348 0.114935 11.4804 0.31952 11.2929C0.524105 11.1054 0.801582 11 1.09091 11H2.18182V9H1.09091C0.801582 9 0.524105 8.89464 0.31952 8.70711C0.114935 8.51957 0 8.26522 0 8C0 7.73478 0.114935 7.48043 0.31952 7.29289C0.524105 7.10536 0.801582 7 1.09091 7H2.18182V5H1.09091C0.801582 5 0.524105 4.89464 0.31952 4.70711C0.114935 4.51957 0 4.26522 0 4C0 3.73478 0.114935 3.48043 0.31952 3.29289C0.524105 3.10536 0.801582 3 1.09091 3H2.64436C3.06841 2.10936 3.76639 1.35129 4.65296 0.818499C5.53953 0.285705 6.57626 0.00127838 7.63636 0L18.5455 0C19.9916 0.00158786 21.3779 0.528882 22.4005 1.46622C23.423 2.40356 23.9983 3.67441 24 5ZM9.81818 9C9.81818 9.79565 10.163 10.5587 10.7767 11.1213C11.3905 11.6839 12.2229 12 13.0909 12C13.9589 12 14.7913 11.6839 15.4051 11.1213C16.0188 10.5587 16.3636 9.79565 16.3636 9C16.3636 8.20435 16.0188 7.44129 15.4051 6.87868C14.7913 6.31607 13.9589 6 13.0909 6C12.2229 6 11.3905 6.31607 10.7767 6.87868C10.163 7.44129 9.81818 8.20435 9.81818 9ZM18.5455 18C18.3153 11.392 7.86436 11.394 7.63636 18C7.63636 18.2652 7.7513 18.5196 7.95588 18.7071C8.16047 18.8946 8.43795 19 8.72727 19C9.0166 19 9.29408 18.8946 9.49866 18.7071C9.70325 18.5196 9.81818 18.2652 9.81818 18C9.81818 17.2044 10.163 16.4413 10.7767 15.8787C11.3905 15.3161 12.2229 15 13.0909 15C13.9589 15 14.7913 15.3161 15.4051 15.8787C16.0188 16.4413 16.3636 17.2044 16.3636 18C16.3636 18.2652 16.4786 18.5196 16.6832 18.7071C16.8877 18.8946 17.1652 19 17.4545 19C17.7439 19 18.0214 18.8946 18.2259 18.7071C18.4305 18.5196 18.5455 18.2652 18.5455 18Z" fill="#1C75BC"/>
</svg>
