<svg width="24" height="24" viewBox="0 0 24 24" fill="none" xmlns="http://www.w3.org/2000/svg">
<path d="M18.5455 0H7.63636C6.57626 0.00127838 5.53953 0.285705 4.65296 0.818499C3.76639 1.35129 3.06841 2.10936 2.64436 3H1.09091C0.801582 3 0.524105 3.10536 0.31952 3.29289C0.114935 3.48043 0 3.73478 0 4C0 4.26522 0.114935 4.51957 0.31952 4.70711C0.524105 4.89464 0.801582 5 1.09091 5H2.18182V7H1.09091C0.801582 7 0.524105 7.10536 0.31952 7.29289C0.114935 7.48043 0 7.73478 0 8C0 8.26522 0.114935 8.51957 0.31952 8.70711C0.524105 8.89464 0.801582 9 1.09091 9H2.18182V11H1.09091C0.801582 11 0.524105 11.1054 0.31952 11.2929C0.114935 11.4804 0 11.7348 0 12C0 12.2652 0.114935 12.5196 0.31952 12.7071C0.524105 12.8946 0.801582 13 1.09091 13H2.18182V15H1.09091C0.801582 15 0.524105 15.1054 0.31952 15.2929C0.114935 15.4804 0 15.7348 0 16C0 16.2652 0.114935 16.5196 0.31952 16.7071C0.524105 16.8946 0.801582 17 1.09091 17H2.18182V19H1.09091C0.801582 19 0.524105 19.1054 0.31952 19.2929C0.114935 19.4804 0 19.7348 0 20C0 20.2652 0.114935 20.5196 0.31952 20.7071C0.524105 20.8946 0.801582 21 1.09091 21H2.64436C3.06841 21.8906 3.76639 22.6487 4.65296 23.1815C5.53953 23.7143 6.57626 23.9987 7.63636 24H18.5455C19.9916 23.9984 21.3779 23.4711 22.4005 22.5338C23.423 21.5964 23.9983 20.3256 24 19V5C23.9983 3.67441 23.423 2.40356 22.4005 1.46622C21.3779 0.528882 19.9916 0.00158786 18.5455 0ZM21.8182 19C21.8182 19.7956 21.4734 20.5587 20.8596 21.1213C20.2459 21.6839 19.4134 22 18.5455 22H7.63636C6.76838 22 5.93595 21.6839 5.3222 21.1213C4.70844 20.5587 4.36364 19.7956 4.36364 19V5C4.36364 4.20435 4.70844 3.44129 5.3222 2.87868C5.93595 2.31607 6.76838 2 7.63636 2H18.5455C19.4134 2 20.2459 2.31607 20.8596 2.87868C21.4734 3.44129 21.8182 4.20435 21.8182 5V19Z" fill="#1C75BC"/>
<path d="M15.1213 10.1213C14.5587 10.6839 13.7956 11 13 11C12.2044 11 11.4413 10.6839 10.8787 10.1213C10.3161 9.55871 10 8.79565 10 8C10 7.20435 10.3161 6.44129 10.8787 5.87868C11.4413 5.31607 12.2044 5 13 5C13.7956 5 14.5587 5.31607 15.1213 5.87868C15.6839 6.44129 16 7.20435 16 8C16 8.79565 15.6839 9.55871 15.1213 10.1213Z" fill="#1C75BC"/>
<path d="M17.7071 17.7071C17.8946 17.5196 18 17.2652 18 17C17.791 10.394 8.211 10.392 8 17C8 17.2652 8.10536 17.5196 8.29289 17.7071C8.48043 17.8946 8.73478 18 9 18C9.26522 18 9.51957 17.8946 9.70711 17.7071C9.89464 17.5196 10 17.2652 10 17C10 16.2044 10.3161 15.4413 10.8787 14.8787C11.4413 14.3161 12.2044 14 13 14C13.7956 14 14.5587 14.3161 15.1213 14.8787C15.6839 15.4413 16 16.2044 16 17C16 17.2652 16.1054 17.5196 16.2929 17.7071C16.4804 17.8946 16.7348 18 17 18C17.2652 18 17.5196 17.8946 17.7071 17.7071Z" fill="#1C75BC"/>
</svg>
