<svg width="35" height="35" viewBox="0 0 35 35" fill="none" xmlns="http://www.w3.org/2000/svg">
<rect width="35" height="35" rx="17.5" fill="#1C75BC"/>
<g clip-path="url(#clip0_5_415)">
<path d="M24.2833 10.7175C23.8584 10.2932 23.2825 10.0549 22.682 10.0549C22.0816 10.0549 21.5057 10.2932 21.0808 10.7175L10.9158 20.8825C10.6247 21.1719 10.3939 21.5162 10.2367 21.8955C10.0795 22.2747 9.99912 22.6813 10.0001 23.0918V24.375C10.0001 24.5407 10.066 24.6997 10.1832 24.8169C10.3004 24.9341 10.4594 25 10.6251 25H11.9083C12.3187 25.0011 12.7254 24.9209 13.1046 24.7638C13.4838 24.6067 13.8282 24.376 14.1176 24.085L24.2833 13.9193C24.7073 13.4945 24.9455 12.9187 24.9455 12.3184C24.9455 11.7181 24.7073 11.1423 24.2833 10.7175ZM13.2339 23.2012C12.8814 23.5514 12.4051 23.7485 11.9083 23.75H11.2501V23.0918C11.2495 22.8455 11.2977 22.6015 11.392 22.374C11.4863 22.1465 11.6248 21.9399 11.7995 21.7662L19.5139 14.0518L20.9514 15.4893L13.2339 23.2012ZM23.3989 13.0356L21.8326 14.6025L20.3951 13.1681L21.962 11.6012C22.0564 11.507 22.1684 11.4324 22.2917 11.3815C22.4149 11.3306 22.547 11.3045 22.6803 11.3046C22.8136 11.3048 22.9456 11.3312 23.0688 11.3823C23.1919 11.4335 23.3038 11.5084 23.3979 11.6028C23.4921 11.6972 23.5668 11.8092 23.6177 11.9324C23.6686 12.0557 23.6947 12.1877 23.6946 12.3211C23.6944 12.4544 23.668 12.5864 23.6168 12.7096C23.5657 12.8327 23.4908 12.9445 23.3964 13.0387L23.3989 13.0356Z" fill="white"/>
</g>
<defs>
<clipPath id="clip0_5_415">
<rect width="15" height="15" fill="white" transform="translate(10 10)"/>
</clipPath>
</defs>
</svg>
