<svg width="17" height="15" viewBox="0 0 17 15" fill="none" xmlns="http://www.w3.org/2000/svg">
<path fill-rule="evenodd" clip-rule="evenodd" d="M15.1667 0.833328H1.83334C0.916672 0.833328 0.175005 1.58333 0.175005 2.49999L0.166672 12.5C0.166672 13.4167 0.916672 14.1667 1.83334 14.1667H15.1667C16.0833 14.1667 16.8333 13.4167 16.8333 12.5V2.49999C16.8333 1.58333 16.0833 0.833328 15.1667 0.833328ZM14.8333 4.37499L8.94167 8.05833C8.675 8.22499 8.325 8.22499 8.05834 8.05833L2.16667 4.37499C1.95834 4.24166 1.83334 4.01666 1.83334 3.77499C1.83334 3.21666 2.44167 2.88333 2.91667 3.17499L8.5 6.66666L14.0833 3.17499C14.5583 2.88333 15.1667 3.21666 15.1667 3.77499C15.1667 4.01666 15.0417 4.24166 14.8333 4.37499Z" fill="#1C75BC"/>
</svg>
