<svg width="22" height="24" viewBox="0 0 22 24" fill="none" xmlns="http://www.w3.org/2000/svg">
<path d="M10.9999 16.0001C11.4655 16.001 11.9249 15.8935 12.3418 15.686L14.3419 14.6861C15.3612 14.1799 16.0043 13.1382 15.9999 12.0001V9.03308C16.0034 7.89594 15.3604 6.8556 14.3419 6.3501L12.3418 5.35011C11.4968 4.93011 10.5039 4.93011 9.65885 5.35011L7.65884 6.3501C6.63987 6.85531 5.99651 7.89575 5.99984 9.03308V12.0001C5.99618 13.1375 6.63907 14.1782 7.65785 14.6841L9.65787 15.6841C10.0746 15.8922 10.5341 16.0003 10.9999 16.0001ZM7.99985 12.0001V9.03308C8.00145 8.93108 8.01865 8.82988 8.05085 8.73308L10.2309 9.82306C10.715 10.065 11.2848 10.065 11.7689 9.82306L13.9489 8.73308C13.9811 8.82988 13.9983 8.93108 13.9999 9.03308V12.0001C14.0015 12.3795 13.7869 12.7267 13.4469 12.8951L11.4469 13.895C11.1649 14.0346 10.8339 14.0346 10.5519 13.895L8.5519 12.8951C8.2122 12.7265 7.99807 12.3793 7.99985 12.0001ZM17.9998 22.0001H15.2908L18.7778 18.7781C23.0737 14.4823 23.0738 7.51756 18.7781 3.2217C14.4823 -1.07415 7.5176 -1.0742 3.22175 3.22147C-1.07411 7.51714 -1.07421 14.482 3.22151 18.7778C3.23093 18.7873 6.70887 22.0001 6.70887 22.0001H3.99987C3.44759 22.0001 2.99989 22.4478 2.99989 23C2.99989 23.5523 3.44759 24 3.99987 24H17.9999C18.5522 24 18.9999 23.5523 18.9999 23C18.9999 22.4478 18.5521 22.0001 17.9998 22.0001ZM4.63587 4.63606C8.14287 1.11331 13.8416 1.10056 17.3644 4.60756C20.8871 8.11456 20.8999 13.8133 17.3929 17.336L13.4079 21.017C12.0477 22.299 9.92196 22.2916 8.57089 21L4.63587 17.364C1.12657 13.847 1.12662 8.1531 4.63587 4.63606Z" fill="#1C75BC"/>
</svg>
