<svg width="17" height="17" viewBox="0 0 17 17" fill="none" xmlns="http://www.w3.org/2000/svg">
<path fill-rule="evenodd" clip-rule="evenodd" d="M8.49167 0.166664C3.89167 0.166664 0.166672 3.9 0.166672 8.5C0.166672 13.1 3.89167 16.8333 8.49167 16.8333C13.1 16.8333 16.8333 13.1 16.8333 8.5C16.8333 3.9 13.1 0.166664 8.49167 0.166664ZM14.2667 5.16666H11.8083C11.5417 4.125 11.1583 3.125 10.6583 2.2C12.1917 2.725 13.4667 3.79166 14.2667 5.16666ZM8.50001 1.86666C9.19167 2.86666 9.73334 3.975 10.0917 5.16666H6.90834C7.26667 3.975 7.80834 2.86666 8.50001 1.86666ZM2.05001 10.1667C1.91667 9.63333 1.83334 9.075 1.83334 8.5C1.83334 7.925 1.91667 7.36666 2.05001 6.83333H4.86667C4.80001 7.38333 4.75001 7.93333 4.75001 8.5C4.75001 9.06666 4.80001 9.61666 4.86667 10.1667H2.05001ZM2.73334 11.8333H5.19167C5.45834 12.875 5.84167 13.875 6.34167 14.8C4.80834 14.275 3.53334 13.2167 2.73334 11.8333V11.8333ZM5.19167 5.16666H2.73334C3.53334 3.78333 4.80834 2.725 6.34167 2.2C5.84167 3.125 5.45834 4.125 5.19167 5.16666V5.16666ZM8.50001 15.1333C7.80834 14.1333 7.26667 13.025 6.90834 11.8333H10.0917C9.73334 13.025 9.19167 14.1333 8.50001 15.1333ZM10.45 10.1667H6.55001C6.47501 9.61666 6.41667 9.06666 6.41667 8.5C6.41667 7.93333 6.47501 7.375 6.55001 6.83333H10.45C10.525 7.375 10.5833 7.93333 10.5833 8.5C10.5833 9.06666 10.525 9.61666 10.45 10.1667ZM10.6583 14.8C11.1583 13.875 11.5417 12.875 11.8083 11.8333H14.2667C13.4667 13.2083 12.1917 14.275 10.6583 14.8V14.8ZM12.1333 10.1667C12.2 9.61666 12.25 9.06666 12.25 8.5C12.25 7.93333 12.2 7.38333 12.1333 6.83333H14.95C15.0833 7.36666 15.1667 7.925 15.1667 8.5C15.1667 9.075 15.0833 9.63333 14.95 10.1667H12.1333Z" fill="#1C75BC"/>
</svg>
