<svg width="26" height="25" viewBox="0 0 26 25" fill="none" xmlns="http://www.w3.org/2000/svg">
<path d="M12.75 2.25208C16.0875 2.25208 16.4833 2.26458 17.801 2.325C19.1635 2.3875 20.5667 2.69792 21.5594 3.69062C22.5615 4.69271 22.8625 6.08229 22.925 7.44896C22.9854 8.76667 22.9979 9.1625 22.9979 12.5C22.9979 15.8375 22.9854 16.2333 22.925 17.551C22.8635 18.9062 22.5458 20.3229 21.5594 21.3094C20.5573 22.3115 19.1688 22.6125 17.801 22.675C16.4833 22.7354 16.0875 22.7479 12.75 22.7479C9.4125 22.7479 9.01667 22.7354 7.69896 22.675C6.35417 22.6135 4.91875 22.2885 3.94063 21.3094C2.94375 20.3125 2.6375 18.9094 2.575 17.551C2.51458 16.2333 2.50208 15.8375 2.50208 12.5C2.50208 9.1625 2.51458 8.76667 2.575 7.44896C2.63646 6.09896 2.95729 4.67396 3.94063 3.69062C4.94063 2.69062 6.33542 2.3875 7.69896 2.325C9.01667 2.26458 9.4125 2.25208 12.75 2.25208ZM12.75 0C9.35521 0 8.92917 0.0145833 7.59583 0.075C5.66354 0.163542 3.74479 0.701042 2.34792 2.09792C0.945833 3.5 0.413542 5.41458 0.325 7.34583C0.264583 8.67917 0.25 9.10521 0.25 12.5C0.25 15.8948 0.264583 16.3208 0.325 17.6542C0.413542 19.5844 0.953125 21.5083 2.34792 22.9021C3.74896 24.3031 5.66667 24.8365 7.59583 24.925C8.92917 24.9854 9.35521 25 12.75 25C16.1448 25 16.5708 24.9854 17.9042 24.925C19.8354 24.8365 21.7563 24.2979 23.1521 22.9021C24.5552 21.499 25.0865 19.5854 25.175 17.6542C25.2354 16.3208 25.25 15.8948 25.25 12.5C25.25 9.10521 25.2354 8.67917 25.175 7.34583C25.0865 5.41354 24.5479 3.49375 23.1521 2.09792C21.7531 0.698958 19.8302 0.1625 17.9042 0.075C16.5708 0.0145833 16.1448 0 12.75 0Z" fill="black"/>
<path d="M12.75 6.08124C9.2052 6.08124 6.33124 8.9552 6.33124 12.5C6.33124 16.0448 9.2052 18.9187 12.75 18.9187C16.2948 18.9187 19.1687 16.0448 19.1687 12.5C19.1687 8.9552 16.2948 6.08124 12.75 6.08124ZM12.75 16.6667C10.4489 16.6667 8.58332 14.801 8.58332 12.5C8.58332 10.1989 10.4489 8.33332 12.75 8.33332C15.051 8.33332 16.9167 10.1989 16.9167 12.5C16.9167 14.801 15.051 16.6667 12.75 16.6667Z" fill="black"/>
<path d="M19.4229 7.32709C20.2513 7.32709 20.9229 6.65551 20.9229 5.82709C20.9229 4.99866 20.2513 4.32709 19.4229 4.32709C18.5945 4.32709 17.9229 4.99866 17.9229 5.82709C17.9229 6.65551 18.5945 7.32709 19.4229 7.32709Z" fill="black"/>
</svg>
