<svg width="28" height="27" viewBox="0 0 28 27" fill="none" xmlns="http://www.w3.org/2000/svg">
<rect width="28" height="27" rx="13.5" fill="#1C75BC"/>
<g clip-path="url(#clip0_265_313)">
<path d="M21.6141 16.0548L19.4201 13.8608C19.359 13.7956 19.2854 13.7435 19.2037 13.7074C19.122 13.6712 19.0338 13.6519 18.9445 13.6505C18.8552 13.6491 18.7665 13.6657 18.6837 13.6993C18.6009 13.7328 18.5257 13.7827 18.4626 13.8459C18.3994 13.9091 18.3496 13.9843 18.3161 14.0671C18.2826 14.1499 18.2661 14.2386 18.2676 14.3279C18.269 14.4173 18.2884 14.5054 18.3246 14.5871C18.3608 14.6687 18.413 14.7423 18.4781 14.8034L20.0048 16.3328C19.1749 16.3346 18.353 16.1705 17.5875 15.8499C16.822 15.5293 16.1284 15.0588 15.5475 14.4661C15.483 14.4067 15.4072 14.3608 15.3246 14.3313C15.2421 14.3017 15.1544 14.2891 15.0668 14.294C14.9793 14.299 14.8936 14.3215 14.8149 14.3602C14.7363 14.399 14.6662 14.4531 14.6088 14.5194L14.6001 14.5328C14.4881 14.6631 14.4307 14.8318 14.44 15.0035C14.4493 15.1752 14.5246 15.3366 14.6501 15.4541C15.35 16.1619 16.1846 16.7223 17.1046 17.1022C18.0246 17.4821 19.0114 17.6739 20.0068 17.6661L18.4781 19.1948C18.4085 19.2547 18.352 19.3283 18.3121 19.4111C18.2723 19.4939 18.25 19.5841 18.2466 19.6759C18.2433 19.7677 18.259 19.8592 18.2927 19.9447C18.3263 20.0302 18.3774 20.1078 18.4425 20.1726C18.5076 20.2374 18.5854 20.2881 18.671 20.3214C18.7566 20.3548 18.8482 20.37 18.94 20.3663C19.0318 20.3626 19.1218 20.3399 19.2045 20.2997C19.2871 20.2595 19.3605 20.2027 19.4201 20.1328L21.6141 17.9388C21.8637 17.6888 22.0038 17.35 22.0038 16.9968C22.0038 16.6435 21.8637 16.3047 21.6141 16.0548Z" fill="white"/>
<path d="M20.0047 9.66638L18.478 11.193C18.465 11.2106 18.453 11.2288 18.442 11.2477C18.3344 11.3789 18.2814 11.5464 18.2938 11.7156C18.3062 11.8847 18.3832 12.0427 18.5088 12.1567C18.6344 12.2708 18.799 12.3322 18.9686 12.3283C19.1382 12.3243 19.2998 12.2554 19.42 12.1357L20.5574 10.9997L21.6147 9.94304C21.7934 9.76288 21.9171 9.53544 21.971 9.28744C22.025 9.03945 22.0071 8.7812 21.9194 8.54304C21.8546 8.36074 21.7503 8.19501 21.614 8.05771L19.42 5.86638C19.3592 5.80025 19.2856 5.74711 19.2036 5.71015C19.1217 5.6732 19.0332 5.65319 18.9433 5.65133C18.8535 5.64947 18.7642 5.66579 18.6808 5.69932C18.5974 5.73285 18.5216 5.7829 18.4581 5.84645C18.3945 5.91 18.3445 5.98574 18.311 6.06912C18.2774 6.1525 18.2611 6.24181 18.263 6.33166C18.2648 6.42151 18.2848 6.51006 18.3218 6.59199C18.3588 6.67391 18.4119 6.74751 18.478 6.80838L20.0067 8.33638C16.718 8.34438 14.9154 10.119 13.2807 11.9857C11.7794 10.291 10 8.59971 6.99137 8.36371L6.67071 8.33304C6.49389 8.33304 6.32433 8.40328 6.1993 8.5283C6.07428 8.65333 6.00404 8.8229 6.00404 8.99971C6.00745 9.17545 6.07879 9.34304 6.20308 9.46734C6.32737 9.59163 6.49496 9.66296 6.67071 9.66638C6.71871 9.66638 6.86204 9.68838 6.86204 9.68838C9.45937 9.88504 10.95 11.3477 12.4 12.9997C10.9587 14.6437 9.47804 16.133 6.90204 16.3064L6.63537 16.3204C6.45989 16.3313 6.29595 16.4116 6.17961 16.5434C6.06328 16.6752 6.00408 16.8479 6.01504 17.0234C6.026 17.1989 6.10623 17.3628 6.23806 17.4791C6.3699 17.5955 6.54255 17.6547 6.71804 17.6437C6.82204 17.639 6.99137 17.635 7.07471 17.6284C10.4214 17.3704 12.2367 15.2284 13.8554 13.3557C15.49 11.4664 17.034 9.67838 20.0047 9.66638Z" fill="white"/>
</g>
<defs>
<clipPath id="clip0_265_313">
<rect width="16" height="16" fill="white" transform="translate(6 5)"/>
</clipPath>
</defs>
</svg>
