<svg width="13" height="17" viewBox="0 0 13 17" fill="none" xmlns="http://www.w3.org/2000/svg">
<path fill-rule="evenodd" clip-rule="evenodd" d="M6.5 0.166664C3.275 0.166664 0.666667 2.775 0.666667 6C0.666667 9.475 4.35 14.2667 5.86667 16.0917C6.2 16.4917 6.80833 16.4917 7.14167 16.0917C8.65 14.2667 12.3333 9.475 12.3333 6C12.3333 2.775 9.725 0.166664 6.5 0.166664ZM6.5 8.08333C5.35 8.08333 4.41667 7.15 4.41667 6C4.41667 4.85 5.35 3.91666 6.5 3.91666C7.65 3.91666 8.58333 4.85 8.58333 6C8.58333 7.15 7.65 8.08333 6.5 8.08333Z" fill="#1C75BC"/>
</svg>
