<svg width="35" height="35" viewBox="0 0 35 35" fill="none" xmlns="http://www.w3.org/2000/svg">
<rect width="35" height="35" rx="17.5" fill="#1C75BC"/>
<g clip-path="url(#clip0_119_533)">
<path d="M26.6667 16.6664H8.33333C7.87309 16.6664 7.49999 17.0395 7.49999 17.4997C7.49999 17.96 7.87309 18.3331 8.33333 18.3331H26.6667C27.1269 18.3331 27.5 17.96 27.5 17.4997C27.5 17.0395 27.1269 16.6664 26.6667 16.6664Z" fill="white"/>
<path d="M26.6667 10.8336H8.33333C7.87309 10.8336 7.49999 11.2067 7.49999 11.6669C7.49999 12.1272 7.87309 12.5003 8.33333 12.5003H26.6667C27.1269 12.5003 27.5 12.1272 27.5 11.6669C27.5 11.2067 27.1269 10.8336 26.6667 10.8336Z" fill="white"/>
<path d="M26.6667 22.5H8.33333C7.87309 22.5 7.49999 22.8731 7.49999 23.3333C7.49999 23.7936 7.87309 24.1667 8.33333 24.1667H26.6667C27.1269 24.1667 27.5 23.7936 27.5 23.3333C27.5 22.8731 27.1269 22.5 26.6667 22.5Z" fill="white"/>
</g>
<defs>
<clipPath id="clip0_119_533">
<rect width="20" height="20" fill="white" transform="translate(7.5 7.5)"/>
</clipPath>
</defs>
</svg>
