<svg width="25" height="24" viewBox="0 0 25 24" fill="none" xmlns="http://www.w3.org/2000/svg">
<g clip-path="url(#clip0_163_417)">
<path d="M11.6348 12.5362C11.3581 12.2574 11.0295 12.0362 10.6679 11.8853C10.3062 11.7345 9.9186 11.6568 9.52713 11.6568C9.13567 11.6568 8.74804 11.7345 8.3864 11.8853C8.02476 12.0362 7.69619 12.2574 7.41947 12.5362L0.625687 19.3762C0.717522 20.6303 1.27617 21.8032 2.18992 22.6605C3.10367 23.5178 4.30517 23.9963 5.55416 24.0002H19.4596C20.4327 24 21.384 23.7102 22.194 23.1672L11.6348 12.5362Z" fill="black" fill-opacity="0.5"/>
<path d="M18.4661 8.0003C19.5632 8.0003 20.4525 7.10487 20.4525 6.0003C20.4525 4.89573 19.5632 4.00031 18.4661 4.00031C17.369 4.00031 16.4796 4.89573 16.4796 6.0003C16.4796 7.10487 17.369 8.0003 18.4661 8.0003Z" fill="black" fill-opacity="0.5"/>
<path d="M19.4595 0H5.55405C4.23742 0.00158786 2.97515 0.528882 2.04415 1.46622C1.11315 2.40356 0.589414 3.67441 0.587837 5L0.587837 16.586L6.01492 11.122C6.47609 10.6576 7.02362 10.2892 7.62624 10.0378C8.22885 9.78644 8.87474 9.65707 9.52703 9.65707C10.1793 9.65707 10.8252 9.78644 11.4278 10.0378C12.0304 10.2892 12.578 10.6576 13.0391 11.122L23.5983 21.753C24.1376 20.9375 24.4255 19.9797 24.4257 19V5C24.4241 3.67441 23.9004 2.40356 22.9694 1.46622C22.0384 0.528882 20.7761 0.00158786 19.4595 0V0ZM18.4662 10C17.6804 10 16.9123 9.7654 16.259 9.32588C15.6056 8.88635 15.0964 8.26164 14.7957 7.53073C14.495 6.79983 14.4163 5.99556 14.5696 5.21964C14.7229 4.44372 15.1013 3.73098 15.6569 3.17157C16.2125 2.61216 16.9204 2.2312 17.6911 2.07686C18.4618 1.92252 19.2606 2.00173 19.9866 2.30448C20.7126 2.60723 21.3331 3.11992 21.7696 3.77772C22.2062 4.43552 22.4392 5.20888 22.4392 6C22.4392 7.06087 22.0206 8.07828 21.2755 8.82843C20.5305 9.57857 19.5199 10 18.4662 10Z" fill="black" fill-opacity="0.5"/>
</g>
<defs>
<clipPath id="clip0_163_417">
<rect width="23.8378" height="24" fill="white" transform="translate(0.587837)"/>
</clipPath>
</defs>
</svg>
