<svg width="21" height="26" viewBox="0 0 21 26" fill="none" xmlns="http://www.w3.org/2000/svg">
<path d="M8.91667 13C9.20399 13 9.47954 13.1141 9.6827 13.3173C9.88586 13.5205 10 13.796 10 14.0833C10 14.3707 9.88586 14.6462 9.6827 14.8494C9.47954 15.0525 9.20399 15.1667 8.91667 15.1667H5.66667C5.37935 15.1667 5.1038 15.0525 4.90063 14.8494C4.69747 14.6462 4.58333 14.3707 4.58333 14.0833C4.58333 13.796 4.69747 13.5205 4.90063 13.3173C5.1038 13.1141 5.37935 13 5.66667 13H8.91667ZM15.4167 9.75C15.4167 9.46268 15.3025 9.18713 15.0994 8.98397C14.8962 8.7808 14.6207 8.66667 14.3333 8.66667H5.66667C5.37935 8.66667 5.1038 8.7808 4.90063 8.98397C4.69747 9.18713 4.58333 9.46268 4.58333 9.75C4.58333 10.0373 4.69747 10.3129 4.90063 10.516C5.1038 10.7192 5.37935 10.8333 5.66667 10.8333H14.3333C14.6207 10.8333 14.8962 10.7192 15.0994 10.516C15.3025 10.3129 15.4167 10.0373 15.4167 9.75ZM5.66667 6.5H14.3333C14.6207 6.5 14.8962 6.38586 15.0994 6.1827C15.3025 5.97953 15.4167 5.70398 15.4167 5.41667C15.4167 5.12935 15.3025 4.8538 15.0994 4.65063C14.8962 4.44747 14.6207 4.33333 14.3333 4.33333H5.66667C5.37935 4.33333 5.1038 4.44747 4.90063 4.65063C4.69747 4.8538 4.58333 5.12935 4.58333 5.41667C4.58333 5.70398 4.69747 5.97953 4.90063 6.1827C5.1038 6.38586 5.37935 6.5 5.66667 6.5ZM18.6667 21.0643V25.2168C18.6667 25.3713 18.621 25.5224 18.5352 25.6509C18.4493 25.7794 18.3273 25.8796 18.1845 25.9387C18.0418 25.9979 17.8847 26.0134 17.7331 25.9832C17.5815 25.953 17.4423 25.8786 17.3331 25.7693L16.5 24.9373L15.6669 25.7693C15.5577 25.8786 15.4185 25.953 15.2669 25.9832C15.1153 26.0134 14.9582 25.9979 14.8155 25.9387C14.6727 25.8796 14.5507 25.7794 14.4648 25.6509C14.379 25.5224 14.3333 25.3713 14.3333 25.2168V21.0643C13.5071 20.5896 12.8611 19.8551 12.4958 18.975C12.1305 18.0949 12.0665 17.1187 12.3138 16.1985C12.561 15.2783 13.1056 14.4656 13.8628 13.8871C14.6199 13.3086 15.5471 12.9967 16.5 13C16.8662 13.0046 17.2303 13.0563 17.5833 13.1538V5.41667C17.5833 4.55471 17.2409 3.72806 16.6314 3.11857C16.0219 2.50908 15.1953 2.16667 14.3333 2.16667H5.66667C4.80471 2.16667 3.97806 2.50908 3.36857 3.11857C2.75908 3.72806 2.41667 4.55471 2.41667 5.41667V18.4167C2.41667 19.2786 2.75908 20.1053 3.36857 20.7148C3.97806 21.3243 4.80471 21.6667 5.66667 21.6667H11.0833C11.3707 21.6667 11.6462 21.7808 11.8494 21.984C12.0525 22.1871 12.1667 22.4627 12.1667 22.75C12.1667 23.0373 12.0525 23.3129 11.8494 23.516C11.6462 23.7192 11.3707 23.8333 11.0833 23.8333H5.66667C4.23061 23.8316 2.85385 23.2604 1.8384 22.2449C0.822955 21.2295 0.25172 19.8527 0.25 18.4167V5.41667C0.25172 3.98061 0.822955 2.60385 1.8384 1.5884C2.85385 0.572955 4.23061 0.00172018 5.66667 0L14.3333 0C15.7694 0.00172018 17.1461 0.572955 18.1616 1.5884C19.177 2.60385 19.7483 3.98061 19.75 5.41667V14.4972C20.1744 14.9737 20.4868 15.5391 20.6644 16.1521C20.8419 16.765 20.8802 17.4098 20.7763 18.0394C20.6725 18.669 20.4291 19.2674 20.0641 19.7908C19.6991 20.3142 19.2216 20.7493 18.6667 21.0643ZM18.6667 17.3333C18.6667 16.9048 18.5396 16.4859 18.3015 16.1296C18.0634 15.7733 17.7251 15.4956 17.3291 15.3316C16.9332 15.1676 16.4976 15.1247 16.0773 15.2083C15.657 15.2919 15.271 15.4983 14.9679 15.8013C14.6649 16.1043 14.4586 16.4903 14.375 16.9106C14.2914 17.3309 14.3343 17.7666 14.4983 18.1625C14.6623 18.5584 14.94 18.8968 15.2963 19.1349C15.6526 19.3729 16.0715 19.5 16.5 19.5C17.0746 19.5 17.6257 19.2717 18.0321 18.8654C18.4384 18.4591 18.6667 17.908 18.6667 17.3333Z" fill="black"/>
</svg>
