<svg width="22" height="24" viewBox="0 0 22 24" fill="none" xmlns="http://www.w3.org/2000/svg">
<path d="M11 12C12.1867 12 13.3467 11.6481 14.3334 10.9888C15.3201 10.3295 16.0892 9.39246 16.5433 8.2961C16.9974 7.19975 17.1162 5.99335 16.8847 4.82946C16.6532 3.66558 16.0818 2.59648 15.2426 1.75736C14.4035 0.918247 13.3344 0.346802 12.1705 0.115291C11.0067 -0.11622 9.80026 0.00259972 8.7039 0.456726C7.60754 0.910851 6.67047 1.67989 6.01118 2.66658C5.35189 3.65328 5 4.81331 5 6C5.00159 7.59081 5.63424 9.11602 6.75911 10.2409C7.88399 11.3658 9.40919 11.9984 11 12ZM11 2C11.7911 2 12.5645 2.2346 13.2223 2.67412C13.8801 3.11365 14.3928 3.73836 14.6955 4.46927C14.9983 5.20017 15.0775 6.00444 14.9231 6.78036C14.7688 7.55629 14.3878 8.26902 13.8284 8.82843C13.269 9.38784 12.5563 9.7688 11.7804 9.92314C11.0044 10.0775 10.2002 9.99827 9.46927 9.69552C8.73836 9.39277 8.11365 8.88008 7.67412 8.22228C7.2346 7.56449 7 6.79113 7 6C7 4.93914 7.42143 3.92172 8.17157 3.17158C8.92172 2.42143 9.93913 2 11 2Z" fill="#1C75BC"/>
<path d="M11 14C8.08361 14.0026 5.2876 14.9517 3.2254 16.639C1.1632 18.3262 0.00323504 20.6139 0 23C0 23.2652 0.128769 23.5196 0.357981 23.7071C0.587192 23.8946 0.898069 24 1.22222 24C1.54638 24 1.85725 23.8946 2.08646 23.7071C2.31567 23.5196 2.44444 23.2652 2.44444 23C2.44444 21.1435 3.34583 19.363 4.95031 18.0503C6.55479 16.7375 8.73093 16 11 16C13.2691 16 15.4452 16.7375 17.0497 18.0503C18.6542 19.363 19.5556 21.1435 19.5556 23C19.5556 23.2652 19.6843 23.5196 19.9135 23.7071C20.1427 23.8946 20.4536 24 20.7778 24C21.1019 24 21.4128 23.8946 21.642 23.7071C21.8712 23.5196 22 23.2652 22 23C21.9968 20.6139 20.8368 18.3262 18.7746 16.639C16.7124 14.9517 13.9164 14.0026 11 14Z" fill="#1C75BC"/>
</svg>
