<svg width="27" height="26" viewBox="0 0 27 26" fill="none" xmlns="http://www.w3.org/2000/svg">
<rect width="27" height="26" fill="#1E1E1E"/>
<g clip-path="url(#clip0_0_1)">
<rect width="390" height="844" transform="translate(-168 -532)" fill="white"/>
<rect x="-148" y="-324" width="350" height="494" rx="20" fill="#E8F1F8"/>
<rect x="-119" width="138.462" height="80" rx="15" fill="white"/>
<rect x="-169" y="-532" width="391" height="844" fill="black" fill-opacity="0.5"/>
<path d="M-28 -507C-28 -520.807 -16.8071 -532 -3 -532H222V312H-2.99999C-16.8071 312 -28 300.807 -28 287V-507Z" fill="#E8F1F8"/>
<rect x="-13" y="-14" width="220" height="55" rx="10" fill="white"/>
<path d="M13.3722 26C12.8378 26 12.3034 25.8133 11.8803 25.4398L7.70491 21.9687H4.4537C1.99303 21.9687 0 20.0025 0 17.575V4.39375C0 1.9662 1.99303 0 4.4537 0H22.2685C24.7292 0 26.7222 1.9662 26.7222 4.39375V17.575C26.7222 20.0025 24.7292 21.9687 22.2685 21.9687H19.0953L14.8086 25.4618C14.4077 25.8133 13.8844 26 13.3722 26ZM4.4537 2.19687C3.22894 2.19687 2.22685 3.18547 2.22685 4.39375V17.575C2.22685 18.7833 3.22894 19.7719 4.4537 19.7719H8.11687C8.3841 19.7719 8.62905 19.8597 8.82947 20.0355L13.3388 23.7812L17.9818 20.0245C18.1822 19.8597 18.4272 19.7719 18.6944 19.7719H22.2685C23.4933 19.7719 24.4954 18.7833 24.4954 17.575V4.39375C24.4954 3.18547 23.4933 2.19687 22.2685 2.19687H4.4537ZM10.032 16.861C9.82042 16.861 9.59773 16.7951 9.41958 16.6633C9.07442 16.4106 8.92968 15.9603 9.06329 15.5539L10.0208 12.5222L7.59356 10.5779C7.27067 10.3033 7.14819 9.86396 7.29294 9.46852C7.43769 9.07309 7.82738 8.80946 8.25049 8.80946H11.3124L12.3924 5.94254C12.5372 5.54711 12.9269 5.28348 13.35 5.28348C13.7731 5.28348 14.1628 5.54711 14.3075 5.94254L15.3875 8.80946H18.4495C18.8726 8.80946 19.2623 9.07309 19.407 9.46852C19.5518 9.86396 19.4293 10.3143 19.1064 10.5889L16.6903 12.5332L17.6923 15.5319C17.8259 15.9383 17.6923 16.3887 17.3472 16.6413C17.002 16.9049 16.5344 16.9159 16.1669 16.6853L13.3611 14.8838L10.5998 16.7072C10.4328 16.8171 10.2324 16.872 10.032 16.872V16.861Z" fill="black"/>
</g>
<defs>
<clipPath id="clip0_0_1">
<rect width="390" height="844" fill="white" transform="translate(-168 -532)"/>
</clipPath>
</defs>
</svg>
