<svg width="27" height="27" viewBox="0 0 27 27" fill="none" xmlns="http://www.w3.org/2000/svg">
<rect width="27" height="27" fill="#1E1E1E"/>
<rect width="390" height="844" transform="translate(-244 -276)" fill="white"/>
<rect x="-224" y="-144" width="348.878" height="311" rx="20" fill="#E8F1F8"/>
<rect x="-204.5" y="-124.5" width="311" height="189.033" rx="15.5" fill="white" stroke="#E8F1F8" stroke-linejoin="round"/>
<rect width="27" height="27" rx="13.5" fill="#1C75BC"/>
<path d="M7.43002 14.5696C7.70042 14.3166 8.06488 14.1767 8.44323 14.1805C8.82159 14.1844 9.18286 14.3317 9.44758 14.59L12.073 17.1547V7.36349C12.073 7.00187 12.2233 6.65506 12.4909 6.39936C12.7585 6.14365 13.1214 6 13.4998 6C13.8783 6 14.2412 6.14365 14.5088 6.39936C14.7764 6.65506 14.9267 7.00187 14.9267 7.36349V17.1547L17.5521 14.59C17.817 14.3315 18.1785 14.184 18.5571 14.1802C18.9358 14.1764 19.3005 14.3164 19.5711 14.5696C19.8416 14.8227 19.9959 15.1682 19.9999 15.53C20.0039 15.8918 19.8574 16.2403 19.5925 16.4989L16.004 20.0031C15.3451 20.6358 14.451 20.9936 13.517 20.9984C13.508 21.0005 13.4987 21.0005 13.4898 20.9984C13.0286 20.9986 12.5718 20.9117 12.1458 20.7427C11.7197 20.5738 11.3328 20.3262 11.0071 20.014L7.40719 16.4989C7.27601 16.3708 7.17254 16.2193 7.10269 16.053C7.03283 15.8867 6.99797 15.7089 7.00009 15.5297C7.00221 15.3505 7.04127 15.1735 7.11504 15.0087C7.18882 14.844 7.29585 14.6948 7.43002 14.5696Z" fill="white"/>
</svg>
