<svg width="65" height="65" viewBox="0 0 65 65" fill="none" xmlns="http://www.w3.org/2000/svg">
<rect width="65" height="65" rx="32.5" fill="#1C75BC"/>
<g clip-path="url(#clip0_199_335)">
<path d="M41.8331 48.4998H39.1665C38.8128 48.4998 38.4737 48.3593 38.2237 48.1093C37.9736 47.8592 37.8331 47.5201 37.8331 47.1665C37.8331 46.8128 37.9736 46.4737 38.2237 46.2236C38.4737 45.9736 38.8128 45.8331 39.1665 45.8331H41.8331C42.894 45.8331 43.9114 45.4117 44.6616 44.6616C45.4117 43.9114 45.8331 42.894 45.8331 41.8331V39.1665C45.8331 38.8128 45.9736 38.4737 46.2236 38.2237C46.4737 37.9736 46.8128 37.8331 47.1665 37.8331C47.5201 37.8331 47.8592 37.9736 48.1093 38.2237C48.3593 38.4737 48.4998 38.8128 48.4998 39.1665V41.8331C48.4977 43.6006 47.7946 45.295 46.5448 46.5448C45.295 47.7946 43.6006 48.4977 41.8331 48.4998Z" fill="white"/>
<path d="M17.8333 27.1667C17.4797 27.1667 17.1406 27.0262 16.8905 26.7761C16.6405 26.5261 16.5 26.187 16.5 25.8333V23.1667C16.5021 21.3992 17.2052 19.7047 18.455 18.455C19.7047 17.2052 21.3992 16.5021 23.1667 16.5H25.8333C26.187 16.5 26.5261 16.6405 26.7761 16.8905C27.0262 17.1406 27.1667 17.4797 27.1667 17.8333C27.1667 18.187 27.0262 18.5261 26.7761 18.7761C26.5261 19.0262 26.187 19.1667 25.8333 19.1667H23.1667C22.1058 19.1667 21.0884 19.5881 20.3382 20.3382C19.5881 21.0884 19.1667 22.1058 19.1667 23.1667V25.8333C19.1667 26.187 19.0262 26.5261 18.7761 26.7761C18.5261 27.0262 18.187 27.1667 17.8333 27.1667Z" fill="white"/>
<path d="M25.8333 48.4998H23.1667C21.3992 48.4977 19.7047 47.7946 18.4549 46.5448C17.2052 45.295 16.5021 43.6006 16.5 41.8331V39.1665C16.5 38.8128 16.6405 38.4737 16.8905 38.2237C17.1406 37.9736 17.4797 37.8331 17.8333 37.8331C18.1869 37.8331 18.5261 37.9736 18.7761 38.2237C19.0262 38.4737 19.1667 38.8128 19.1667 39.1665V41.8331C19.1667 42.894 19.5881 43.9114 20.3382 44.6616C21.0884 45.4117 22.1058 45.8331 23.1667 45.8331H25.8333C26.1869 45.8331 26.5261 45.9736 26.7761 46.2236C27.0262 46.4737 27.1667 46.8128 27.1667 47.1665C27.1667 47.5201 27.0262 47.8592 26.7761 48.1093C26.5261 48.3593 26.1869 48.4998 25.8333 48.4998Z" fill="white"/>
<path d="M47.1665 27.1667C46.8128 27.1667 46.4737 27.0262 46.2236 26.7761C45.9736 26.5261 45.8331 26.1869 45.8331 25.8333V23.1667C45.8331 22.1058 45.4117 21.0884 44.6616 20.3382C43.9114 19.5881 42.894 19.1667 41.8331 19.1667H39.1665C38.8128 19.1667 38.4737 19.0262 38.2237 18.7761C37.9736 18.5261 37.8331 18.1869 37.8331 17.8333C37.8331 17.4797 37.9736 17.1406 38.2237 16.8905C38.4737 16.6405 38.8128 16.5 39.1665 16.5H41.8331C43.6006 16.5021 45.295 17.2052 46.5448 18.455C47.7946 19.7047 48.4977 21.3992 48.4998 23.1667V25.8333C48.4998 26.1869 48.3593 26.5261 48.1093 26.7761C47.8592 27.0262 47.5201 27.1667 47.1665 27.1667Z" fill="white"/>
</g>
<path d="M28.592 23.1207H26.2471C24.5229 23.1207 23.1207 24.5229 23.1207 26.2471V28.592C23.1207 30.3162 24.5229 31.7184 26.2471 31.7184H28.592C30.3162 31.7184 31.7184 30.3162 31.7184 28.592V26.2471C31.7184 24.5229 30.3162 23.1207 28.592 23.1207ZM30.1552 28.592C30.1552 29.4541 29.4541 30.1552 28.592 30.1552H26.2471C25.385 30.1552 24.6839 29.4541 24.6839 28.592V26.2471C24.6839 25.385 25.385 24.6839 26.2471 24.6839H28.592C29.4541 24.6839 30.1552 25.385 30.1552 26.2471V28.592ZM28.592 27.0287V27.8103C28.592 28.2418 28.2418 28.592 27.8103 28.592H27.0287C26.5973 28.592 26.2471 28.2418 26.2471 27.8103V27.0287C26.2471 26.5973 26.5973 26.2471 27.0287 26.2471H27.8103C28.2418 26.2471 28.592 26.5973 28.592 27.0287ZM36.408 31.7184H38.7529C40.4771 31.7184 41.8793 30.3162 41.8793 28.592V26.2471C41.8793 24.5229 40.4771 23.1207 38.7529 23.1207H36.408C34.6838 23.1207 33.2816 24.5229 33.2816 26.2471V28.592C33.2816 30.3162 34.6838 31.7184 36.408 31.7184ZM34.8448 26.2471C34.8448 25.385 35.5459 24.6839 36.408 24.6839H38.7529C39.615 24.6839 40.3161 25.385 40.3161 26.2471V28.592C40.3161 29.4541 39.615 30.1552 38.7529 30.1552H36.408C35.5459 30.1552 34.8448 29.4541 34.8448 28.592V26.2471ZM36.408 27.8103V27.0287C36.408 26.5973 36.7582 26.2471 37.1897 26.2471H37.9713C38.4027 26.2471 38.7529 26.5973 38.7529 27.0287V27.8103C38.7529 28.2418 38.4027 28.592 37.9713 28.592H37.1897C36.7582 28.592 36.408 28.2418 36.408 27.8103ZM28.592 33.2816H26.2471C24.5229 33.2816 23.1207 34.6838 23.1207 36.408V38.7529C23.1207 40.4771 24.5229 41.8793 26.2471 41.8793H28.592C30.3162 41.8793 31.7184 40.4771 31.7184 38.7529V36.408C31.7184 34.6838 30.3162 33.2816 28.592 33.2816ZM30.1552 38.7529C30.1552 39.615 29.4541 40.3161 28.592 40.3161H26.2471C25.385 40.3161 24.6839 39.615 24.6839 38.7529V36.408C24.6839 35.5459 25.385 34.8448 26.2471 34.8448H28.592C29.4541 34.8448 30.1552 35.5459 30.1552 36.408V38.7529ZM28.592 37.1897V37.9713C28.592 38.4027 28.2418 38.7529 27.8103 38.7529H27.0287C26.5973 38.7529 26.2471 38.4027 26.2471 37.9713V37.1897C26.2471 36.7582 26.5973 36.408 27.0287 36.408H27.8103C28.2418 36.408 28.592 36.7582 28.592 37.1897ZM36.408 34.454V35.2356C36.408 35.8828 35.8828 36.408 35.2356 36.408H34.454C33.8069 36.408 33.2816 35.8828 33.2816 35.2356V34.454C33.2816 33.8069 33.8069 33.2816 34.454 33.2816H35.2356C35.8828 33.2816 36.408 33.8069 36.408 34.454ZM38.7529 37.5805C38.7529 38.2276 38.2276 38.7529 37.5805 38.7529C36.9333 38.7529 36.408 38.2276 36.408 37.5805C36.408 36.9333 36.9333 36.408 37.5805 36.408C38.2276 36.408 38.7529 36.9333 38.7529 37.5805ZM36.408 39.9253V40.7069C36.408 41.3541 35.8828 41.8793 35.2356 41.8793H34.454C33.8069 41.8793 33.2816 41.3541 33.2816 40.7069V39.9253C33.2816 39.2781 33.8069 38.7529 34.454 38.7529H35.2356C35.8828 38.7529 36.408 39.2781 36.408 39.9253ZM41.8793 34.454V35.2356C41.8793 35.8828 41.3541 36.408 40.7069 36.408H39.9253C39.2781 36.408 38.7529 35.8828 38.7529 35.2356V34.454C38.7529 33.8069 39.2781 33.2816 39.9253 33.2816H40.7069C41.3541 33.2816 41.8793 33.8069 41.8793 34.454Z" fill="white"/>
<defs>
<clipPath id="clip0_199_335">
<rect width="32" height="32" fill="white" transform="translate(16.5 16.5)"/>
</clipPath>
</defs>
</svg>
