<svg width="35" height="35" viewBox="0 0 35 35" fill="none" xmlns="http://www.w3.org/2000/svg">
<rect width="35" height="35" rx="10" fill="#1C75BC"/>
<path d="M24.5202 15.1807L11.8058 9.19635C11.4558 9.02627 11.0629 8.96466 10.6777 9.01944C10.2924 9.07421 9.93235 9.24287 9.64361 9.50377C9.35487 9.76467 9.15066 10.1059 9.05718 10.4837C8.9637 10.8615 8.98522 11.2586 9.11897 11.6241C9.13143 11.6547 12.2432 17.5019 12.2432 17.5019C12.2432 17.5019 9.18809 23.3479 9.17676 23.3774C9.04237 23.7427 9.02039 24.1398 9.11365 24.5177C9.20692 24.8956 9.41115 25.237 9.70005 25.4977C9.98896 25.7585 10.3493 25.9269 10.7347 25.981C11.1201 26.0352 11.5128 25.9727 11.8624 25.8017L24.5202 19.8242C24.9623 19.6179 25.3365 19.2897 25.5986 18.8781C25.8608 18.4666 26 17.9887 26 17.5007C26 17.0127 25.8608 16.5349 25.5986 16.1233C25.3365 15.7117 24.9623 15.3835 24.5202 15.1773V15.1807ZM10.4346 11.1005C10.4051 11.0003 10.4054 10.8937 10.4356 10.7938C10.4658 10.6938 10.5245 10.6048 10.6045 10.5378C10.6846 10.4707 10.7824 10.4285 10.8861 10.4163C10.9898 10.4041 11.0948 10.4225 11.1882 10.4692L23.9196 16.4637C24.0824 16.5391 24.2255 16.6512 24.3377 16.7912H13.4704L10.4346 11.1005ZM23.9196 18.5423L11.2482 24.5232C11.1553 24.5686 11.0512 24.5862 10.9486 24.5738C10.8459 24.5614 10.749 24.5195 10.6696 24.4533C10.5902 24.387 10.5316 24.2992 10.501 24.2004C10.4703 24.1016 10.4689 23.996 10.4969 23.8965L13.4727 18.208H24.3423C24.2293 18.3505 24.0845 18.4646 23.9196 18.5412V18.5423Z" fill="white"/>
</svg>
