<svg width="27" height="27" viewBox="0 0 27 27" fill="none" xmlns="http://www.w3.org/2000/svg">
<rect width="27" height="27" rx="13.5" fill="#1C75BC"/>
<g clip-path="url(#clip0_265_315)">
<path d="M19.9424 9.50131L17.5253 19.8604C17.3886 20.4748 17.061 21.021 16.5964 21.4098C16.1318 21.7986 15.5577 22.0067 14.9682 22.0001H14.9535C14.3601 22.0035 13.7835 21.7891 13.3196 21.3927C12.8557 20.9962 12.5325 20.4415 12.4037 19.8209L11.77 16.9391L15.7346 12.6911C15.8033 12.6175 15.8578 12.5302 15.895 12.434C15.9322 12.3378 15.9513 12.2347 15.9513 12.1306C15.9513 12.0265 15.9322 11.9234 15.895 11.8272C15.8578 11.731 15.8033 11.6437 15.7346 11.57C15.6659 11.4964 15.5843 11.4379 15.4946 11.3981C15.4048 11.3583 15.3086 11.3378 15.2114 11.3378C15.1142 11.3378 15.018 11.3583 14.9282 11.3981C14.8384 11.4379 14.7569 11.4964 14.6882 11.57L10.7235 15.8178L8.0338 15.1389C7.45819 14.9946 6.94461 14.6471 6.57561 14.1523C6.20662 13.6575 6.00365 13.044 5.9994 12.4107C5.99515 11.7773 6.18983 11.1609 6.55213 10.6604C6.91444 10.1599 7.42335 9.80458 7.99696 9.65147L17.6653 7.0617C17.9799 6.97742 18.3095 6.98188 18.622 7.07461C18.9345 7.16734 19.2193 7.34517 19.4485 7.59083C19.6778 7.8365 19.8438 8.14157 19.9304 8.47639C20.0169 8.81121 20.0211 9.16426 19.9424 9.50131Z" fill="white"/>
</g>
<defs>
<clipPath id="clip0_265_315">
<rect width="14" height="15" fill="white" transform="translate(6 7)"/>
</clipPath>
</defs>
</svg>
