<svg width="26" height="26" viewBox="0 0 26 26" fill="none" xmlns="http://www.w3.org/2000/svg">
<rect width="26" height="26" fill="#1E1E1E"/>
<g clip-path="url(#clip0_0_1)">
<rect width="390" height="844" transform="translate(-166 -618)" fill="white"/>
<rect x="-146" y="-410" width="350" height="494" rx="20" fill="#E8F1F8"/>
<rect x="-117" y="14" width="291" height="40" rx="10" fill="#1C75BC"/>
<rect x="-167" y="-618" width="391" height="844" fill="black" fill-opacity="0.5"/>
<path d="M-26 -593C-26 -606.807 -14.8071 -618 -1 -618H224V226H-0.999994C-14.8071 226 -26 214.807 -26 201V-593Z" fill="#E8F1F8"/>
<rect x="-11" y="-14" width="220" height="55" rx="10" fill="white"/>
<g clip-path="url(#clip1_0_1)">
<path d="M12.4323 16.25C12.145 16.25 11.8695 16.3641 11.6663 16.5673C11.4631 16.7705 11.349 17.046 11.349 17.3333V20.5833C11.349 21.4453 11.0066 22.2719 10.3971 22.8814C9.7876 23.4909 8.96095 23.8333 8.099 23.8333H5.41667C4.55471 23.8333 3.72806 23.4909 3.11857 22.8814C2.50908 22.2719 2.16667 21.4453 2.16667 20.5833V5.41667C2.16667 4.55471 2.50908 3.72806 3.11857 3.11857C3.72806 2.50908 4.55471 2.16667 5.41667 2.16667H8.099C8.96095 2.16667 9.7876 2.50908 10.3971 3.11857C11.0066 3.72806 11.349 4.55471 11.349 5.41667V8.66667C11.349 8.95399 11.4631 9.22954 11.6663 9.4327C11.8695 9.63586 12.145 9.75 12.4323 9.75C12.7197 9.75 12.9952 9.63586 13.1984 9.4327C13.4015 9.22954 13.5157 8.95399 13.5157 8.66667V5.41667C13.5139 3.98061 12.9427 2.60385 11.9273 1.5884C10.9118 0.572955 9.53506 0.00172018 8.099 0H5.41667C3.98061 0.00172018 2.60385 0.572955 1.5884 1.5884C0.572955 2.60385 0.00172018 3.98061 0 5.41667L0 20.5833C0.00172018 22.0194 0.572955 23.3961 1.5884 24.4116C2.60385 25.427 3.98061 25.9983 5.41667 26H8.099C9.53506 25.9983 10.9118 25.427 11.9273 24.4116C12.9427 23.3961 13.5139 22.0194 13.5157 20.5833V17.3333C13.5157 17.046 13.4015 16.7705 13.1984 16.5673C12.9952 16.3641 12.7197 16.25 12.4323 16.25Z" fill="black"/>
<path d="M24.7726 10.7023L19.8044 5.73408C19.7045 5.63061 19.5849 5.54808 19.4528 5.49131C19.3206 5.43453 19.1784 5.40465 19.0346 5.4034C18.8907 5.40215 18.7481 5.42956 18.615 5.48403C18.4818 5.5385 18.3609 5.61894 18.2591 5.72066C18.1574 5.82237 18.077 5.94333 18.0225 6.07647C17.968 6.2096 17.9406 6.35226 17.9419 6.4961C17.9431 6.63995 17.973 6.7821 18.0298 6.91427C18.0866 7.04644 18.1691 7.16598 18.2726 7.26592L22.8908 11.8842L6.49999 11.9167C6.21267 11.9167 5.93712 12.0308 5.73396 12.234C5.53079 12.4371 5.41666 12.7127 5.41666 13C5.41666 13.2873 5.53079 13.5629 5.73396 13.766C5.93712 13.9692 6.21267 14.0833 6.49999 14.0833L22.9537 14.0508L18.2704 18.7341C18.1669 18.834 18.0844 18.9536 18.0276 19.0857C17.9709 19.2179 17.941 19.3601 17.9397 19.5039C17.9385 19.6477 17.9659 19.7904 18.0203 19.9235C18.0748 20.0567 18.1553 20.1776 18.257 20.2793C18.3587 20.3811 18.4797 20.4615 18.6128 20.516C18.7459 20.5704 18.8886 20.5979 19.0324 20.5966C19.1763 20.5954 19.3184 20.5655 19.4506 20.5087C19.5828 20.4519 19.7023 20.3694 19.8022 20.2659L24.7704 15.2978C25.38 14.6886 25.7226 13.8622 25.723 13.0004C25.7235 12.1387 25.3816 11.312 24.7726 10.7023Z" fill="black"/>
</g>
</g>
<defs>
<clipPath id="clip0_0_1">
<rect width="390" height="844" fill="white" transform="translate(-166 -618)"/>
</clipPath>
<clipPath id="clip1_0_1">
<rect width="26" height="26" fill="white"/>
</clipPath>
</defs>
</svg>
