<svg width="27" height="27" viewBox="0 0 27 27" fill="none" xmlns="http://www.w3.org/2000/svg">
<rect width="27" height="27" fill="#1E1E1E"/>
<g clip-path="url(#clip0_0_1)">
<rect width="390" height="844" transform="translate(-166 -467)" fill="white"/>
<rect x="-146" y="-259" width="350" height="494" rx="20" fill="#E8F1F8"/>
<rect x="-117" y="-30" width="138.462" height="80" rx="15" fill="white"/>
<rect x="-167" y="-467" width="391" height="844" fill="black" fill-opacity="0.5"/>
<path d="M-26 -442C-26 -455.807 -14.8071 -467 -1 -467H224V377H-0.999994C-14.8071 377 -26 365.807 -26 352V-442Z" fill="#E8F1F8"/>
<rect x="-11" y="-14" width="220" height="55" rx="10" fill="white"/>
<path d="M25.977 6.7354C25.8141 6.12986 25.3536 5.66834 24.7469 5.50769C24.1486 5.34834 23.5249 5.51544 23.0887 5.95784C23.0886 5.95796 23.0885 5.95808 23.0884 5.9582L19.3788 9.69345C19.3787 9.69356 19.3785 9.69367 19.3784 9.69378C18.8032 10.2685 17.8658 10.2669 17.2912 9.69332C17.0127 9.41529 16.8595 9.04563 16.8595 8.65146C16.8595 8.25791 17.0123 7.88999 17.2936 7.60828L17.294 7.60781L20.9914 3.8858C21.4281 3.44623 21.5922 2.82261 21.4288 2.22488L21.4287 2.22459C21.2631 1.62142 20.8005 1.16611 20.1946 1.00823L20.1944 1.00816C19.0546 0.712441 17.8795 0.670725 16.7018 0.883289L16.7016 0.883329C13.5479 1.4555 10.9717 3.93872 10.2885 7.06681C10.0118 8.3318 10.0419 9.60377 10.377 10.8438L10.377 10.844C10.5157 11.3559 10.3887 11.8511 10.0581 12.1794L10.058 12.1796L1.81474 20.383L1.81463 20.3831C0.545954 21.6473 0.382729 23.6756 1.47758 25.0077L1.4776 25.0077C2.08469 25.7461 3.00193 26.25 4.10329 26.25C4.99743 26.25 5.86358 25.8961 6.49944 25.2625L14.8699 16.9289C15.1965 16.6037 15.6871 16.4764 16.1952 16.6102L16.2589 16.3684L16.1952 16.6102C17.4452 16.9393 18.7247 16.9575 19.9917 16.6685C23.1149 15.9598 25.5794 13.3735 26.1259 10.2308C26.3124 9.15845 26.2889 8.09061 26.0538 7.05035H26.0617L25.977 6.7354ZM24.4861 7.13926C24.7328 8.05646 24.7735 9.00717 24.6069 9.96601L24.6064 9.96597C24.1657 12.5004 22.1733 14.5924 19.6507 15.1662C18.6231 15.3972 17.5942 15.3848 16.5886 15.1203L16.5881 15.1202C15.5616 14.8525 14.5088 15.1143 13.7814 15.8381L13.7814 15.8381L5.41088 24.1707L5.41086 24.1707C5.04331 24.5367 4.53382 24.7331 4.01272 24.7065L4.01216 24.7065C3.48524 24.6808 3.01014 24.4414 2.67152 24.0297C2.09488 23.3283 2.17577 22.2033 2.90631 21.476C2.90632 21.476 2.90633 21.476 2.90633 21.476L11.1474 13.2726L11.1475 13.2724C11.8825 12.5399 12.1476 11.4792 11.8667 10.4434L11.8667 10.4434C11.5956 9.44417 11.5723 8.41934 11.7965 7.39662L11.7966 7.39641C12.3479 4.87119 14.4312 2.86272 16.9763 2.40247C17.3784 2.33004 17.7789 2.29393 18.1759 2.29393C18.7254 2.29393 19.2708 2.36308 19.8053 2.50141C19.8573 2.51522 19.8856 2.54001 19.9039 2.56312C19.9247 2.58952 19.9352 2.61823 19.9394 2.63351L19.9399 2.63529C19.9437 2.64904 19.9489 2.67686 19.9448 2.70773C19.9413 2.73442 19.9305 2.76763 19.8951 2.80384C19.895 2.80396 19.8949 2.80409 19.8948 2.80421L16.2002 6.52341C16.2 6.52355 16.1999 6.5237 16.1997 6.52384C15.6303 7.09253 15.3159 7.84976 15.3159 8.65458C15.3159 9.45947 15.6303 10.2179 16.2001 10.7867C17.3779 11.9636 19.2936 11.9623 20.4712 10.7845L20.4718 10.7839L24.184 7.04604C24.1841 7.04596 24.1842 7.04588 24.1843 7.0458C24.2196 7.01065 24.2519 6.99997 24.2777 6.99631C24.3077 6.99206 24.3346 6.99701 24.3472 7.00053L24.3472 7.00055L24.3499 7.00126C24.3664 7.00566 24.3954 7.01615 24.422 7.037C24.4454 7.05527 24.4713 7.08442 24.4861 7.13926Z" fill="black" stroke="black" stroke-width="0.5"/>
</g>
<defs>
<clipPath id="clip0_0_1">
<rect width="390" height="844" fill="white" transform="translate(-166 -467)"/>
</clipPath>
</defs>
</svg>
