<svg width="26" height="19" viewBox="0 0 26 19" fill="none" xmlns="http://www.w3.org/2000/svg">
<path d="M24.9771 3.44373C24.6896 2.36143 23.8427 1.50831 22.7667 1.21873C20.8177 0.693726 13 0.693726 13 0.693726C13 0.693726 5.18229 0.693726 3.23229 1.21873C2.15729 1.50831 1.31042 2.36039 1.02292 3.44373C0.5 5.40623 0.5 9.49998 0.5 9.49998C0.5 9.49998 0.5 13.5937 1.02292 15.5562C1.31042 16.6385 2.15729 17.4916 3.23333 17.7812C5.18229 18.3062 13 18.3062 13 18.3062C13 18.3062 20.8177 18.3062 22.7677 17.7812C23.8427 17.4916 24.6896 16.6396 24.9781 15.5562C25.5 13.5937 25.5 9.49998 25.5 9.49998C25.5 9.49998 25.5 5.40623 24.9771 3.44373ZM10.4438 13.2177V5.78227L16.9771 9.49998L10.4438 13.2177Z" fill="black"/>
</svg>
